<svg width="1008" height="216" viewBox="0 0 1008 216" fill="none" xmlns="http://www.w3.org/2000/svg">
<path d="M45 15C45 6.71573 51.7157 0 60 0H132C140.284 0 147 6.71573 147 15V39H45V15Z" fill="white"/>
<path d="M80.468 25H82.47L79.866 21.318C81.266 21.01 82.246 19.876 82.246 18.406C82.246 16.656 80.874 15.34 79.068 15.34H75.05V25H76.716V21.402H77.976L80.468 25ZM76.716 16.908H79.04C79.894 16.908 80.538 17.552 80.538 18.42C80.538 19.288 79.894 19.946 79.04 19.946H76.716V16.908ZM88.2933 23.432V20.926H92.5913V19.358H88.2933V16.908H93.0533V15.34H86.6273V25H93.1233V23.432H88.2933ZM104.113 15.34V22.172L99.2835 15.34H97.5895V25H99.2555V18.168L104.085 25H105.779V15.34H104.113ZM117.516 15.34H110.012V16.908H112.938V25H114.604V16.908H117.516V15.34Z" fill="#110229"/>
<path d="M181.79 19.876C182.462 19.526 182.952 18.714 182.952 17.776C182.952 16.376 181.86 15.34 180.432 15.34H176.05V25H180.754C182.294 25 183.456 23.908 183.456 22.382C183.456 21.206 182.77 20.184 181.79 19.876ZM180.026 16.838C180.726 16.838 181.244 17.37 181.244 18.07C181.244 18.77 180.698 19.302 180.026 19.302H177.66V16.838H180.026ZM180.362 23.502H177.66V20.716H180.362C181.146 20.716 181.734 21.318 181.734 22.102C181.734 22.886 181.146 23.502 180.362 23.502ZM191.407 25.168C193.675 25.168 195.383 23.502 195.383 21.276V15.34H193.717V21.248C193.717 22.564 192.737 23.558 191.407 23.558C190.091 23.558 189.097 22.564 189.097 21.248V15.34H187.445V21.276C187.445 23.502 189.153 25.168 191.407 25.168ZM206.575 15.34L203.789 19.862L200.989 15.34H199.085L202.935 21.542V25H204.601V21.542L208.437 15.34H206.575Z" fill="#8F90A6"/>
<path d="M268.312 25.168C270.398 25.168 272.008 24.006 272.008 22.298C272.008 20.142 269.418 19.498 268.508 19.302C267.584 19.12 266.436 18.756 266.436 17.888C266.436 17.16 267.206 16.67 268.27 16.67C269.278 16.67 270.258 17.09 270.79 17.636L271.574 16.376C270.874 15.676 269.698 15.172 268.298 15.172C266.184 15.172 264.714 16.278 264.714 17.944C264.714 19.652 266.282 20.492 268.032 20.898C268.998 21.108 270.3 21.416 270.3 22.368C270.3 23.152 269.404 23.67 268.312 23.67C267.164 23.67 266.016 23.138 265.26 22.382L264.392 23.656C265.33 24.566 266.842 25.168 268.312 25.168ZM277.883 23.432V20.926H282.181V19.358H277.883V16.908H282.643V15.34H276.217V25H282.713V23.432H277.883ZM288.845 23.432V15.34H287.179V25H293.255V23.432H288.845ZM299.137 23.432V15.34H297.471V25H303.547V23.432H299.137Z" fill="#8F90A6"/>
<g filter="url(#filter0_bd_8_117)">
<path d="M45 39H943C954.046 39 963 47.9543 963 59V121C963 132.046 954.046 141 943 141H65C53.9543 141 45 132.046 45 121V39Z" fill="white" fill-opacity="0.8" shape-rendering="crispEdges"/>
</g>
<rect x="872" y="63" width="54" height="54" rx="15" fill="#1DAEFF"/>
<path d="M898.368 97.2632C902.729 97.2632 906.263 93.7286 906.263 89.3684C906.263 85.0083 902.729 81.4737 898.368 81.4737C894.008 81.4737 890.474 85.0083 890.474 89.3684C890.474 93.7286 894.008 97.2632 898.368 97.2632Z" stroke="white" stroke-width="3" stroke-linecap="round" stroke-linejoin="round"/>
<path d="M908.237 99.2369L903.944 94.9441" stroke="white" stroke-width="3" stroke-linecap="round" stroke-linejoin="round"/>
<path d="M77.744 80.66V70.58H75.26V83H83.162V80.66H77.744ZM88.7888 83.216C91.5968 83.216 93.7208 81.146 93.7208 78.41C93.7208 75.674 91.5968 73.604 88.7888 73.604C85.9808 73.604 83.8568 75.674 83.8568 78.41C83.8568 81.146 85.9808 83.216 88.7888 83.216ZM88.7888 80.948C87.3488 80.948 86.2688 79.85 86.2688 78.41C86.2688 76.97 87.3488 75.872 88.7888 75.872C90.2468 75.872 91.3088 76.97 91.3088 78.41C91.3088 79.85 90.2468 80.948 88.7888 80.948ZM99.7752 83.216C101.629 83.216 103.177 82.316 104.005 80.93L101.971 79.706C101.557 80.444 100.747 80.948 99.7752 80.948C98.3352 80.948 97.2552 79.85 97.2552 78.41C97.2552 76.97 98.3352 75.872 99.7752 75.872C100.747 75.872 101.557 76.376 101.971 77.114L104.005 75.89C103.177 74.504 101.629 73.604 99.7752 73.604C96.9672 73.604 94.8432 75.674 94.8432 78.41C94.8432 81.146 96.9672 83.216 99.7752 83.216ZM112.263 73.82V74.918C111.525 74.108 110.499 73.604 109.275 73.604C106.719 73.604 104.793 75.674 104.793 78.41C104.793 81.146 106.719 83.216 109.275 83.216C110.499 83.216 111.525 82.712 112.263 81.902V83H114.603V73.82H112.263ZM109.725 80.948C108.285 80.948 107.205 79.85 107.205 78.41C107.205 76.97 108.285 75.872 109.725 75.872C111.183 75.872 112.263 76.97 112.263 78.41C112.263 79.85 111.183 80.948 109.725 80.948ZM122.481 75.962V73.82H120.015V71.498H117.675V73.82H116.217V75.962H117.675V80.156C117.675 81.992 118.665 83.216 120.771 83.216C121.455 83.216 121.977 83.09 122.481 82.82V80.642C122.139 80.804 121.743 80.948 121.275 80.948C120.447 80.948 120.015 80.552 120.015 79.778V75.962H122.481ZM125.382 72.47C126.21 72.47 126.858 71.84 126.858 71.012C126.858 70.184 126.21 69.554 125.382 69.554C124.554 69.554 123.906 70.184 123.906 71.012C123.906 71.84 124.554 72.47 125.382 72.47ZM124.212 83H126.552V73.82H124.212V83ZM133.156 83.216C135.964 83.216 138.088 81.146 138.088 78.41C138.088 75.674 135.964 73.604 133.156 73.604C130.348 73.604 128.224 75.674 128.224 78.41C128.224 81.146 130.348 83.216 133.156 83.216ZM133.156 80.948C131.716 80.948 130.636 79.85 130.636 78.41C130.636 76.97 131.716 75.872 133.156 75.872C134.614 75.872 135.676 76.97 135.676 78.41C135.676 79.85 134.614 80.948 133.156 80.948ZM145.024 73.604C143.836 73.604 142.828 74.036 142.108 74.846V73.82H139.768V83H142.108V77.96C142.108 76.7 142.972 75.872 144.25 75.872C145.474 75.872 146.266 76.682 146.266 77.924V83H148.606V77.168C148.606 75.008 147.184 73.604 145.024 73.604Z" fill="#110229"/>
<path d="M318.678 70.58H313.26V83H315.744V78.86H318.678C321.09 78.86 322.944 77.078 322.944 74.72C322.944 72.362 321.09 70.58 318.678 70.58ZM318.624 76.52H315.744V72.92H318.624C319.632 72.92 320.388 73.694 320.388 74.72C320.388 75.746 319.632 76.52 318.624 76.52ZM329.422 73.676C328.342 73.676 327.442 74.162 326.776 75.008V73.82H324.436V83H326.776V78.644C326.776 77.078 327.748 76.088 329.422 76.088H329.818V73.676H329.422ZM335.349 83.216C338.157 83.216 340.281 81.146 340.281 78.41C340.281 75.674 338.157 73.604 335.349 73.604C332.541 73.604 330.417 75.674 330.417 78.41C330.417 81.146 332.541 83.216 335.349 83.216ZM335.349 80.948C333.909 80.948 332.829 79.85 332.829 78.41C332.829 76.97 333.909 75.872 335.349 75.872C336.807 75.872 337.869 76.97 337.869 78.41C337.869 79.85 336.807 80.948 335.349 80.948ZM347.29 73.604C346.066 73.604 345.04 74.09 344.302 74.918V73.82H341.962V86.42H344.302V81.902C345.04 82.73 346.066 83.216 347.29 83.216C349.846 83.216 351.754 81.146 351.754 78.41C351.754 75.674 349.846 73.604 347.29 73.604ZM346.822 80.948C345.382 80.948 344.302 79.85 344.302 78.41C344.302 76.97 345.382 75.872 346.822 75.872C348.28 75.872 349.342 76.97 349.342 78.41C349.342 79.85 348.28 80.948 346.822 80.948ZM362.619 78.428C362.619 75.656 360.549 73.604 357.795 73.604C355.023 73.604 352.917 75.656 352.917 78.374C352.917 81.128 355.095 83.216 358.011 83.216C359.739 83.216 361.215 82.514 362.169 81.38L360.603 80.012C360.117 80.624 359.199 81.146 358.083 81.146C356.751 81.146 355.779 80.408 355.455 79.256H362.565C362.601 79.004 362.619 78.68 362.619 78.428ZM357.777 75.656C358.911 75.656 359.829 76.394 360.117 77.546H355.437C355.725 76.412 356.625 75.656 357.777 75.656ZM369.237 73.676C368.157 73.676 367.257 74.162 366.591 75.008V73.82H364.251V83H366.591V78.644C366.591 77.078 367.563 76.088 369.237 76.088H369.633V73.676H369.237ZM376.811 75.962V73.82H374.345V71.498H372.005V73.82H370.547V75.962H372.005V80.156C372.005 81.992 372.995 83.216 375.101 83.216C375.785 83.216 376.307 83.09 376.811 82.82V80.642C376.469 80.804 376.073 80.948 375.605 80.948C374.777 80.948 374.345 80.552 374.345 79.778V75.962H376.811ZM385.073 73.82L382.697 80.066L380.303 73.82H377.639L381.383 82.856L381.005 83.648C380.771 84.17 380.393 84.368 379.961 84.368C379.565 84.368 379.133 84.188 378.845 83.882L377.945 85.718C378.557 86.276 379.529 86.636 380.357 86.636C381.563 86.636 382.643 85.862 383.147 84.602L387.683 73.82H385.073ZM402.009 70.58H392.343V72.92H395.943V83H398.427V72.92H402.009V70.58ZM409.682 73.82L407.306 80.066L404.912 73.82H402.248L405.992 82.856L405.614 83.648C405.38 84.17 405.002 84.368 404.57 84.368C404.174 84.368 403.742 84.188 403.454 83.882L402.554 85.718C403.166 86.276 404.138 86.636 404.966 86.636C406.172 86.636 407.252 85.862 407.756 84.602L412.292 73.82H409.682ZM418.833 73.604C417.609 73.604 416.583 74.09 415.845 74.918V73.82H413.505V86.42H415.845V81.902C416.583 82.73 417.609 83.216 418.833 83.216C421.389 83.216 423.297 81.146 423.297 78.41C423.297 75.674 421.389 73.604 418.833 73.604ZM418.365 80.948C416.925 80.948 415.845 79.85 415.845 78.41C415.845 76.97 416.925 75.872 418.365 75.872C419.823 75.872 420.885 76.97 420.885 78.41C420.885 79.85 419.823 80.948 418.365 80.948ZM434.162 78.428C434.162 75.656 432.092 73.604 429.338 73.604C426.566 73.604 424.46 75.656 424.46 78.374C424.46 81.128 426.638 83.216 429.554 83.216C431.282 83.216 432.758 82.514 433.712 81.38L432.146 80.012C431.66 80.624 430.742 81.146 429.626 81.146C428.294 81.146 427.322 80.408 426.998 79.256H434.108C434.144 79.004 434.162 78.68 434.162 78.428ZM429.32 75.656C430.454 75.656 431.372 76.394 431.66 77.546H426.98C427.268 76.412 428.168 75.656 429.32 75.656Z" fill="#110229"/>
<path d="M613.678 70.58H608.26V83H610.744V78.86H613.678C616.09 78.86 617.944 77.078 617.944 74.72C617.944 72.362 616.09 70.58 613.678 70.58ZM613.624 76.52H610.744V72.92H613.624C614.632 72.92 615.388 73.694 615.388 74.72C615.388 75.746 614.632 76.52 613.624 76.52ZM624.422 73.676C623.342 73.676 622.442 74.162 621.776 75.008V73.82H619.436V83H621.776V78.644C621.776 77.078 622.748 76.088 624.422 76.088H624.818V73.676H624.422ZM627.356 72.47C628.184 72.47 628.832 71.84 628.832 71.012C628.832 70.184 628.184 69.554 627.356 69.554C626.528 69.554 625.88 70.184 625.88 71.012C625.88 71.84 626.528 72.47 627.356 72.47ZM626.186 83H628.526V73.82H626.186V83ZM635.131 83.216C636.985 83.216 638.533 82.316 639.361 80.93L637.327 79.706C636.913 80.444 636.103 80.948 635.131 80.948C633.691 80.948 632.611 79.85 632.611 78.41C632.611 76.97 633.691 75.872 635.131 75.872C636.103 75.872 636.913 76.376 637.327 77.114L639.361 75.89C638.533 74.504 636.985 73.604 635.131 73.604C632.323 73.604 630.199 75.674 630.199 78.41C630.199 81.146 632.323 83.216 635.131 83.216ZM649.815 78.428C649.815 75.656 647.745 73.604 644.991 73.604C642.219 73.604 640.113 75.656 640.113 78.374C640.113 81.128 642.291 83.216 645.207 83.216C646.935 83.216 648.411 82.514 649.365 81.38L647.799 80.012C647.313 80.624 646.395 81.146 645.279 81.146C643.947 81.146 642.975 80.408 642.651 79.256H649.761C649.797 79.004 649.815 78.68 649.815 78.428ZM644.973 75.656C646.107 75.656 647.025 76.394 647.313 77.546H642.633C642.921 76.412 643.821 75.656 644.973 75.656ZM662.508 83H665.496L662.4 78.374C664.056 77.852 665.19 76.43 665.19 74.648C665.19 72.326 663.372 70.58 660.978 70.58H655.686V83H658.17V78.572H659.646L662.508 83ZM658.17 72.92H660.924C661.896 72.92 662.634 73.676 662.634 74.666C662.634 75.656 661.896 76.412 660.924 76.412H658.17V72.92ZM673.652 73.82V74.918C672.914 74.108 671.888 73.604 670.664 73.604C668.108 73.604 666.182 75.674 666.182 78.41C666.182 81.146 668.108 83.216 670.664 83.216C671.888 83.216 672.914 82.712 673.652 81.902V83H675.992V73.82H673.652ZM671.114 80.948C669.674 80.948 668.594 79.85 668.594 78.41C668.594 76.97 669.674 75.872 671.114 75.872C672.572 75.872 673.652 76.97 673.652 78.41C673.652 79.85 672.572 80.948 671.114 80.948ZM683.474 73.604C682.286 73.604 681.278 74.036 680.558 74.846V73.82H678.218V83H680.558V77.96C680.558 76.7 681.422 75.872 682.7 75.872C683.924 75.872 684.716 76.682 684.716 77.924V83H687.056V77.168C687.056 75.008 685.634 73.604 683.474 73.604ZM694.983 83H691.995C691.419 83 691.023 82.676 691.023 82.226C691.023 81.92 691.203 81.614 691.491 81.434C691.959 81.578 692.463 81.668 693.003 81.668C695.451 81.668 697.323 79.94 697.323 77.636C697.323 76.736 697.035 75.908 696.531 75.26C696.621 74.846 696.999 74.594 697.467 74.594H698.115V72.434H697.359C696.153 72.434 695.271 73.046 695.001 74.036C694.407 73.766 693.741 73.604 693.003 73.604C690.537 73.604 688.701 75.332 688.701 77.636C688.701 78.788 689.151 79.778 689.925 80.498C689.169 80.966 688.683 81.866 688.683 82.802C688.683 84.26 689.817 85.25 691.527 85.25H694.533C695.361 85.25 695.919 85.682 695.991 86.348L698.403 85.7C698.097 84.008 696.801 83 694.983 83ZM693.003 75.818C694.083 75.818 694.911 76.592 694.911 77.636C694.911 78.68 694.083 79.454 693.003 79.454C691.905 79.454 691.095 78.68 691.095 77.636C691.095 76.592 691.905 75.818 693.003 75.818ZM708.35 78.428C708.35 75.656 706.28 73.604 703.526 73.604C700.754 73.604 698.648 75.656 698.648 78.374C698.648 81.128 700.826 83.216 703.742 83.216C705.47 83.216 706.946 82.514 707.9 81.38L706.334 80.012C705.848 80.624 704.93 81.146 703.814 81.146C702.482 81.146 701.51 80.408 701.186 79.256H708.296C708.332 79.004 708.35 78.68 708.35 78.428ZM703.508 75.656C704.642 75.656 705.56 76.394 705.848 77.546H701.168C701.456 76.412 702.356 75.656 703.508 75.656Z" fill="#110229"/>
<path d="M78.88 108.192C81.2 108.192 82.992 106.896 82.992 105.008C82.992 102.624 80.112 101.904 79.04 101.696C77.936 101.472 76.4 101.008 76.4 99.792C76.4 98.784 77.424 98.08 78.816 98.08C80.048 98.08 81.184 98.608 81.76 99.248L82.464 98.16C81.696 97.328 80.384 96.768 78.832 96.768C76.528 96.768 74.896 98 74.896 99.84C74.896 101.792 76.768 102.688 78.624 103.088C79.68 103.328 81.488 103.712 81.488 105.072C81.488 106.144 80.336 106.88 78.88 106.88C77.488 106.88 76.16 106.224 75.328 105.344L74.544 106.448C75.568 107.52 77.232 108.192 78.88 108.192ZM92.684 103.92C92.684 101.472 90.86 99.648 88.428 99.648C85.98 99.648 84.14 101.472 84.14 103.888C84.14 106.336 86.044 108.192 88.604 108.192C90.188 108.192 91.532 107.504 92.348 106.416L91.404 105.6C90.876 106.352 89.852 106.928 88.652 106.928C87.068 106.928 85.9 105.952 85.628 104.528H92.652C92.668 104.336 92.684 104.112 92.684 103.92ZM88.412 100.912C89.852 100.912 90.972 101.872 91.228 103.28H85.612C85.868 101.888 86.988 100.912 88.412 100.912ZM94.4493 108H95.8253V96.48H94.4493V108ZM106.168 103.92C106.168 101.472 104.344 99.648 101.912 99.648C99.4644 99.648 97.6244 101.472 97.6244 103.888C97.6244 106.336 99.5284 108.192 102.088 108.192C103.672 108.192 105.016 107.504 105.832 106.416L104.888 105.6C104.36 106.352 103.336 106.928 102.136 106.928C100.552 106.928 99.3844 105.952 99.1124 104.528H106.136C106.152 104.336 106.168 104.112 106.168 103.92ZM101.896 100.912C103.336 100.912 104.456 101.872 104.712 103.28H99.0964C99.3524 101.888 100.472 100.912 101.896 100.912ZM111.758 108.192C113.374 108.192 114.75 107.392 115.486 106.144L114.286 105.424C113.79 106.288 112.862 106.864 111.758 106.864C110.078 106.864 108.83 105.6 108.83 103.92C108.83 102.24 110.078 100.976 111.758 100.976C112.862 100.976 113.79 101.552 114.286 102.416L115.486 101.696C114.75 100.448 113.374 99.648 111.758 99.648C109.278 99.648 107.406 101.488 107.406 103.92C107.406 106.352 109.278 108.192 111.758 108.192ZM121.763 101.088V99.84H119.315V97.648H117.939V99.84H116.467V101.088H117.939V105.824C117.939 107.328 118.755 108.192 120.339 108.192C120.915 108.192 121.347 108.08 121.763 107.856V106.56C121.427 106.736 121.075 106.864 120.627 106.864C119.795 106.864 119.315 106.48 119.315 105.6V101.088H121.763ZM135.305 96.96L131.721 102.464L128.137 96.96H126.457L130.969 103.92V108H132.441V103.92L136.953 96.96H135.305ZM140.32 108.192C142.784 108.192 144.656 106.352 144.656 103.92C144.656 101.488 142.784 99.648 140.32 99.648C137.84 99.648 135.968 101.488 135.968 103.92C135.968 106.352 137.84 108.192 140.32 108.192ZM140.32 106.864C138.64 106.864 137.392 105.6 137.392 103.92C137.392 102.24 138.64 100.976 140.32 100.976C141.984 100.976 143.232 102.24 143.232 103.92C143.232 105.6 141.984 106.864 140.32 106.864ZM150.033 108.192C152.257 108.192 153.729 106.832 153.729 104.768V99.84H152.353V104.576C152.353 105.952 151.425 106.864 150.033 106.864C148.641 106.864 147.713 105.952 147.713 104.576V99.84H146.337V104.768C146.337 106.832 147.809 108.192 150.033 108.192ZM160.094 99.712C158.878 99.712 157.918 100.272 157.31 101.248V99.84H155.934V108H157.31V103.92C157.31 102.224 158.366 101.136 160.094 101.136H160.366V99.712H160.094ZM171.121 108.192C173.169 108.192 174.913 107.216 175.937 105.712L174.673 104.928C173.921 106.064 172.641 106.784 171.121 106.784C168.689 106.784 166.849 104.928 166.849 102.48C166.849 100.032 168.689 98.176 171.121 98.176C172.641 98.176 173.921 98.896 174.673 100.032L175.937 99.248C174.913 97.744 173.169 96.768 171.121 96.768C167.825 96.768 165.345 99.232 165.345 102.48C165.345 105.728 167.825 108.192 171.121 108.192ZM178.372 98.208C178.884 98.208 179.284 97.808 179.284 97.296C179.284 96.768 178.884 96.384 178.372 96.384C177.844 96.384 177.444 96.768 177.444 97.296C177.444 97.808 177.844 98.208 178.372 98.208ZM177.684 108H179.06V99.84H177.684V108ZM186.091 101.088V99.84H183.643V97.648H182.267V99.84H180.795V101.088H182.267V105.824C182.267 107.328 183.083 108.192 184.667 108.192C185.243 108.192 185.675 108.08 186.091 107.856V106.56C185.755 106.736 185.403 106.864 184.955 106.864C184.123 106.864 183.643 106.48 183.643 105.6V101.088H186.091ZM194.093 99.84L191.341 106.352L188.589 99.84H187.005L190.557 107.952L189.965 109.168C189.709 109.696 189.341 109.904 188.925 109.904C188.509 109.904 188.109 109.696 187.837 109.392L187.261 110.448C187.741 110.928 188.493 111.232 189.133 111.232C190.013 111.232 190.813 110.688 191.229 109.728L195.629 99.84H194.093Z" fill="#8F90A6"/>
<path d="M318.48 108.192C320.528 108.192 322.272 107.216 323.296 105.712L322.032 104.928C321.28 106.064 320 106.784 318.48 106.784C316.048 106.784 314.208 104.928 314.208 102.48C314.208 100.032 316.048 98.176 318.48 98.176C320 98.176 321.28 98.896 322.032 100.032L323.296 99.248C322.272 97.744 320.528 96.768 318.48 96.768C315.184 96.768 312.704 99.232 312.704 102.48C312.704 105.728 315.184 108.192 318.48 108.192ZM329.363 99.648C328.083 99.648 327.059 100.176 326.419 101.136V96.48H325.043V108H326.419V103.424C326.419 101.952 327.411 100.976 328.915 100.976C330.371 100.976 331.299 101.936 331.299 103.392V108H332.675V102.96C332.675 100.96 331.347 99.648 329.363 99.648ZM338.726 108.192C341.19 108.192 343.062 106.352 343.062 103.92C343.062 101.488 341.19 99.648 338.726 99.648C336.246 99.648 334.374 101.488 334.374 103.92C334.374 106.352 336.246 108.192 338.726 108.192ZM338.726 106.864C337.046 106.864 335.798 105.6 335.798 103.92C335.798 102.24 337.046 100.976 338.726 100.976C340.39 100.976 341.638 102.24 341.638 103.92C341.638 105.6 340.39 106.864 338.726 106.864ZM348.695 108.192C351.159 108.192 353.031 106.352 353.031 103.92C353.031 101.488 351.159 99.648 348.695 99.648C346.215 99.648 344.343 101.488 344.343 103.92C344.343 106.352 346.215 108.192 348.695 108.192ZM348.695 106.864C347.015 106.864 345.767 105.6 345.767 103.92C345.767 102.24 347.015 100.976 348.695 100.976C350.359 100.976 351.607 102.24 351.607 103.92C351.607 105.6 350.359 106.864 348.695 106.864ZM357.512 108.192C359.352 108.192 360.808 107.28 360.808 105.664C360.808 103.968 359.24 103.568 357.896 103.248C356.808 102.992 355.88 102.768 355.88 101.968C355.88 101.264 356.664 100.896 357.608 100.896C358.504 100.896 359.272 101.248 359.816 101.776L360.584 100.768C359.896 100.144 358.888 99.648 357.592 99.648C355.912 99.648 354.472 100.464 354.472 102.048C354.472 103.76 356.056 104.176 357.4 104.512C358.472 104.768 359.384 105.008 359.384 105.792C359.384 106.528 358.568 106.944 357.496 106.944C356.44 106.944 355.576 106.544 354.968 105.92L354.2 106.912C354.952 107.632 356.072 108.192 357.512 108.192ZM370.559 103.92C370.559 101.472 368.735 99.648 366.303 99.648C363.855 99.648 362.015 101.472 362.015 103.888C362.015 106.336 363.919 108.192 366.479 108.192C368.063 108.192 369.407 107.504 370.223 106.416L369.279 105.6C368.751 106.352 367.727 106.928 366.527 106.928C364.943 106.928 363.775 105.952 363.503 104.528H370.527C370.543 104.336 370.559 104.112 370.559 103.92ZM366.287 100.912C367.727 100.912 368.847 101.872 369.103 103.28H363.487C363.743 101.888 364.863 100.912 366.287 100.912ZM380.949 96.96H376.405V108H377.877V103.888H380.949C382.965 103.888 384.485 102.4 384.485 100.432C384.485 98.448 382.965 96.96 380.949 96.96ZM380.917 102.512H377.877V98.336H380.917C382.101 98.336 382.981 99.232 382.981 100.432C382.981 101.632 382.101 102.512 380.917 102.512ZM390.328 99.712C389.112 99.712 388.152 100.272 387.544 101.248V99.84H386.168V108H387.544V103.92C387.544 102.224 388.6 101.136 390.328 101.136H390.6V99.712H390.328ZM395.539 108.192C398.003 108.192 399.875 106.352 399.875 103.92C399.875 101.488 398.003 99.648 395.539 99.648C393.059 99.648 391.187 101.488 391.187 103.92C391.187 106.352 393.059 108.192 395.539 108.192ZM395.539 106.864C393.859 106.864 392.611 105.6 392.611 103.92C392.611 102.24 393.859 100.976 395.539 100.976C397.203 100.976 398.451 102.24 398.451 103.92C398.451 105.6 397.203 106.864 395.539 106.864ZM406.228 99.648C404.868 99.648 403.748 100.288 403.06 101.312V99.84H401.684V111.04H403.06V106.528C403.748 107.552 404.868 108.192 406.228 108.192C408.564 108.192 410.324 106.352 410.324 103.92C410.324 101.488 408.564 99.648 406.228 99.648ZM405.972 106.864C404.308 106.864 403.06 105.6 403.06 103.92C403.06 102.24 404.308 100.976 405.972 100.976C407.652 100.976 408.9 102.24 408.9 103.92C408.9 105.6 407.652 106.864 405.972 106.864ZM420.168 103.92C420.168 101.472 418.344 99.648 415.912 99.648C413.464 99.648 411.624 101.472 411.624 103.888C411.624 106.336 413.528 108.192 416.088 108.192C417.672 108.192 419.016 107.504 419.832 106.416L418.888 105.6C418.36 106.352 417.336 106.928 416.136 106.928C414.552 106.928 413.384 105.952 413.112 104.528H420.136C420.152 104.336 420.168 104.112 420.168 103.92ZM415.896 100.912C417.336 100.912 418.456 101.872 418.712 103.28H413.096C413.352 101.888 414.472 100.912 415.896 100.912ZM426.094 99.712C424.878 99.712 423.918 100.272 423.31 101.248V99.84H421.934V108H423.31V103.92C423.31 102.224 424.366 101.136 426.094 101.136H426.366V99.712H426.094ZM432.653 101.088V99.84H430.205V97.648H428.829V99.84H427.357V101.088H428.829V105.824C428.829 107.328 429.645 108.192 431.229 108.192C431.805 108.192 432.237 108.08 432.653 107.856V106.56C432.317 106.736 431.965 106.864 431.517 106.864C430.685 106.864 430.205 106.48 430.205 105.6V101.088H432.653ZM440.656 99.84L437.904 106.352L435.152 99.84H433.568L437.12 107.952L436.528 109.168C436.272 109.696 435.904 109.904 435.488 109.904C435.072 109.904 434.672 109.696 434.4 109.392L433.824 110.448C434.304 110.928 435.056 111.232 435.696 111.232C436.576 111.232 437.376 110.688 437.792 109.728L442.192 99.84H440.656ZM455.367 96.96H446.839V98.336H450.375V108H451.831V98.336H455.367V96.96ZM462.609 99.84L459.857 106.352L457.105 99.84H455.521L459.073 107.952L458.481 109.168C458.225 109.696 457.857 109.904 457.441 109.904C457.025 109.904 456.625 109.696 456.353 109.392L455.777 110.448C456.257 110.928 457.009 111.232 457.649 111.232C458.529 111.232 459.329 110.688 459.745 109.728L464.145 99.84H462.609ZM470.087 99.648C468.727 99.648 467.607 100.288 466.919 101.312V99.84H465.543V111.04H466.919V106.528C467.607 107.552 468.727 108.192 470.087 108.192C472.423 108.192 474.183 106.352 474.183 103.92C474.183 101.488 472.423 99.648 470.087 99.648ZM469.831 106.864C468.167 106.864 466.919 105.6 466.919 103.92C466.919 102.24 468.167 100.976 469.831 100.976C471.511 100.976 472.759 102.24 472.759 103.92C472.759 105.6 471.511 106.864 469.831 106.864ZM484.028 103.92C484.028 101.472 482.204 99.648 479.772 99.648C477.324 99.648 475.484 101.472 475.484 103.888C475.484 106.336 477.388 108.192 479.948 108.192C481.532 108.192 482.876 107.504 483.692 106.416L482.748 105.6C482.22 106.352 481.196 106.928 479.996 106.928C478.412 106.928 477.244 105.952 476.972 104.528H483.996C484.012 104.336 484.028 104.112 484.028 103.92ZM479.756 100.912C481.196 100.912 482.316 101.872 482.572 103.28H476.956C477.212 101.888 478.332 100.912 479.756 100.912Z" fill="#8F90A6"/>
<path d="M613.48 108.192C615.528 108.192 617.272 107.216 618.296 105.712L617.032 104.928C616.28 106.064 615 106.784 613.48 106.784C611.048 106.784 609.208 104.928 609.208 102.48C609.208 100.032 611.048 98.176 613.48 98.176C615 98.176 616.28 98.896 617.032 100.032L618.296 99.248C617.272 97.744 615.528 96.768 613.48 96.768C610.184 96.768 607.704 99.232 607.704 102.48C607.704 105.728 610.184 108.192 613.48 108.192ZM624.363 99.648C623.083 99.648 622.059 100.176 621.419 101.136V96.48H620.043V108H621.419V103.424C621.419 101.952 622.411 100.976 623.915 100.976C625.371 100.976 626.299 101.936 626.299 103.392V108H627.675V102.96C627.675 100.96 626.347 99.648 624.363 99.648ZM633.726 108.192C636.19 108.192 638.062 106.352 638.062 103.92C638.062 101.488 636.19 99.648 633.726 99.648C631.246 99.648 629.374 101.488 629.374 103.92C629.374 106.352 631.246 108.192 633.726 108.192ZM633.726 106.864C632.046 106.864 630.798 105.6 630.798 103.92C630.798 102.24 632.046 100.976 633.726 100.976C635.39 100.976 636.638 102.24 636.638 103.92C636.638 105.6 635.39 106.864 633.726 106.864ZM643.695 108.192C646.159 108.192 648.031 106.352 648.031 103.92C648.031 101.488 646.159 99.648 643.695 99.648C641.215 99.648 639.343 101.488 639.343 103.92C639.343 106.352 641.215 108.192 643.695 108.192ZM643.695 106.864C642.015 106.864 640.767 105.6 640.767 103.92C640.767 102.24 642.015 100.976 643.695 100.976C645.359 100.976 646.607 102.24 646.607 103.92C646.607 105.6 645.359 106.864 643.695 106.864ZM652.512 108.192C654.352 108.192 655.808 107.28 655.808 105.664C655.808 103.968 654.24 103.568 652.896 103.248C651.808 102.992 650.88 102.768 650.88 101.968C650.88 101.264 651.664 100.896 652.608 100.896C653.504 100.896 654.272 101.248 654.816 101.776L655.584 100.768C654.896 100.144 653.888 99.648 652.592 99.648C650.912 99.648 649.472 100.464 649.472 102.048C649.472 103.76 651.056 104.176 652.4 104.512C653.472 104.768 654.384 105.008 654.384 105.792C654.384 106.528 653.568 106.944 652.496 106.944C651.44 106.944 650.576 106.544 649.968 105.92L649.2 106.912C649.952 107.632 651.072 108.192 652.512 108.192ZM665.559 103.92C665.559 101.472 663.735 99.648 661.303 99.648C658.855 99.648 657.015 101.472 657.015 103.888C657.015 106.336 658.919 108.192 661.479 108.192C663.063 108.192 664.407 107.504 665.223 106.416L664.279 105.6C663.751 106.352 662.727 106.928 661.527 106.928C659.943 106.928 658.775 105.952 658.503 104.528H665.527C665.543 104.336 665.559 104.112 665.559 103.92ZM661.287 100.912C662.727 100.912 663.847 101.872 664.103 103.28H658.487C658.743 101.888 659.863 100.912 661.287 100.912ZM675.949 96.96H671.405V108H672.877V103.888H675.949C677.965 103.888 679.485 102.4 679.485 100.432C679.485 98.448 677.965 96.96 675.949 96.96ZM675.917 102.512H672.877V98.336H675.917C677.101 98.336 677.981 99.232 677.981 100.432C677.981 101.632 677.101 102.512 675.917 102.512ZM685.328 99.712C684.112 99.712 683.152 100.272 682.544 101.248V99.84H681.168V108H682.544V103.92C682.544 102.224 683.6 101.136 685.328 101.136H685.6V99.712H685.328ZM687.778 98.208C688.29 98.208 688.69 97.808 688.69 97.296C688.69 96.768 688.29 96.384 687.778 96.384C687.25 96.384 686.85 96.768 686.85 97.296C686.85 97.808 687.25 98.208 687.778 98.208ZM687.09 108H688.466V99.84H687.09V108ZM694.617 108.192C696.233 108.192 697.609 107.392 698.345 106.144L697.145 105.424C696.649 106.288 695.721 106.864 694.617 106.864C692.937 106.864 691.689 105.6 691.689 103.92C691.689 102.24 692.937 100.976 694.617 100.976C695.721 100.976 696.649 101.552 697.145 102.416L698.345 101.696C697.609 100.448 696.233 99.648 694.617 99.648C692.137 99.648 690.265 101.488 690.265 103.92C690.265 106.352 692.137 108.192 694.617 108.192ZM707.95 103.92C707.95 101.472 706.126 99.648 703.694 99.648C701.246 99.648 699.406 101.472 699.406 103.888C699.406 106.336 701.31 108.192 703.87 108.192C705.454 108.192 706.798 107.504 707.614 106.416L706.67 105.6C706.142 106.352 705.118 106.928 703.918 106.928C702.334 106.928 701.166 105.952 700.894 104.528H707.918C707.934 104.336 707.95 104.112 707.95 103.92ZM703.678 100.912C705.118 100.912 706.238 101.872 706.494 103.28H700.878C701.134 101.888 702.254 100.912 703.678 100.912ZM720.18 108H721.956L718.596 103.6C720.388 103.472 721.716 102.112 721.716 100.32C721.716 98.4 720.228 96.96 718.276 96.96H713.796V108H715.268V103.616H716.884L720.18 108ZM715.268 98.336H718.244C719.364 98.336 720.212 99.184 720.212 100.336C720.212 101.488 719.364 102.336 718.244 102.336H715.268V98.336ZM730.154 99.84V101.312C729.466 100.288 728.346 99.648 726.986 99.648C724.65 99.648 722.906 101.488 722.906 103.92C722.906 106.352 724.65 108.192 726.986 108.192C728.346 108.192 729.466 107.552 730.154 106.528V108H731.53V99.84H730.154ZM727.242 106.864C725.562 106.864 724.314 105.6 724.314 103.92C724.314 102.24 725.562 100.976 727.242 100.976C728.906 100.976 730.154 102.24 730.154 103.92C730.154 105.6 728.906 106.864 727.242 106.864ZM738.191 99.648C736.911 99.648 735.887 100.16 735.247 101.088V99.84H733.871V108H735.247V103.424C735.247 101.952 736.239 100.976 737.743 100.976C739.199 100.976 740.127 101.936 740.127 103.392V108H741.503V102.96C741.503 100.96 740.175 99.648 738.191 99.648ZM748.867 108.208H745.875C745.187 108.208 744.723 107.84 744.723 107.264C744.723 106.912 744.914 106.56 745.235 106.352C745.747 106.608 746.323 106.736 746.963 106.736C749.075 106.736 750.691 105.2 750.691 103.184C750.691 102.32 750.403 101.552 749.891 100.944C749.907 100.4 750.307 100.048 750.899 100.048H751.443V98.768H750.819C749.827 98.768 749.123 99.312 748.963 100.176C748.387 99.84 747.715 99.648 746.963 99.648C744.835 99.648 743.235 101.168 743.235 103.184C743.235 104.224 743.667 105.136 744.355 105.776C743.731 106.128 743.347 106.848 743.347 107.616C743.347 108.768 744.259 109.552 745.619 109.552H748.627C749.555 109.552 750.195 110.032 750.227 110.768L751.651 110.4C751.491 109.04 750.403 108.208 748.867 108.208ZM746.963 100.96C748.275 100.96 749.267 101.92 749.267 103.184C749.267 104.464 748.275 105.424 746.963 105.424C745.651 105.424 744.659 104.464 744.659 103.184C744.659 101.92 745.635 100.96 746.963 100.96ZM760.653 103.92C760.653 101.472 758.829 99.648 756.397 99.648C753.949 99.648 752.109 101.472 752.109 103.888C752.109 106.336 754.013 108.192 756.573 108.192C758.157 108.192 759.501 107.504 760.317 106.416L759.373 105.6C758.845 106.352 757.821 106.928 756.621 106.928C755.037 106.928 753.869 105.952 753.597 104.528H760.621C760.637 104.336 760.653 104.112 760.653 103.92ZM756.381 100.912C757.821 100.912 758.941 101.872 759.197 103.28H753.581C753.837 101.888 754.957 100.912 756.381 100.912Z" fill="#8F90A6"/>
<line x1="278" y1="69" x2="278" y2="115" stroke="#DCDCEB" stroke-width="2"/>
<line x1="573" y1="69" x2="573" y2="115" stroke="#DCDCEB" stroke-width="2"/>
<path d="M257 99.6667C257 104.333 251 108.333 251 108.333C251 108.333 245 104.333 245 99.6667C245 98.0754 245.632 96.5493 246.757 95.424C247.883 94.2988 249.409 93.6667 251 93.6667C252.591 93.6667 254.117 94.2988 255.243 95.424C256.368 96.5493 257 98.0754 257 99.6667Z" stroke="#8F90A6" stroke-width="1.4" stroke-linecap="round" stroke-linejoin="round"/>
<path d="M251 101.667C252.105 101.667 253 100.771 253 99.6667C253 98.5621 252.105 97.6667 251 97.6667C249.895 97.6667 249 98.5621 249 99.6667C249 100.771 249.895 101.667 251 101.667Z" stroke="#8F90A6" stroke-width="1.4" stroke-linecap="round" stroke-linejoin="round"/>
<path d="M540 99L546 105L552 99" stroke="#8F90A6" stroke-width="1.5" stroke-linecap="round" stroke-linejoin="round"/>
<defs>
<filter id="filter0_bd_8_117" x="0" y="19" width="1008" height="197" filterUnits="userSpaceOnUse" color-interpolation-filters="sRGB">
<feFlood flood-opacity="0" result="BackgroundImageFix"/>
<feGaussianBlur in="BackgroundImage" stdDeviation="10"/>
<feComposite in2="SourceAlpha" operator="in" result="effect1_backgroundBlur_8_117"/>
<feColorMatrix in="SourceAlpha" type="matrix" values="0 0 0 0 0 0 0 0 0 0 0 0 0 0 0 0 0 0 127 0" result="hardAlpha"/>
<feMorphology radius="15" operator="erode" in="SourceAlpha" result="effect2_dropShadow_8_117"/>
<feOffset dy="30"/>
<feGaussianBlur stdDeviation="30"/>
<feComposite in2="hardAlpha" operator="out"/>
<feColorMatrix type="matrix" values="0 0 0 0 0.5605 0 0 0 0 0.564817 0 0 0 0 0.7375 0 0 0 0.15 0"/>
<feBlend mode="normal" in2="effect1_backgroundBlur_8_117" result="effect2_dropShadow_8_117"/>
<feBlend mode="normal" in="SourceGraphic" in2="effect2_dropShadow_8_117" result="shape"/>
</filter>
</defs>
</svg>
